<svg width="371" height="371" viewBox="0 0 371 371" fill="none" xmlns="http://www.w3.org/2000/svg">
<g clip-path="url(#clip0_19_3)">
<path d="M371 0H0V371H371V0Z" fill="#00B3FF"/>
<path d="M114.193 371.142H255.407C257.203 371.142 259 369.705 259 367.549C259 365.393 257.563 363.956 255.407 363.956H241.034L202.227 309.698C211.21 303.949 216.959 293.888 216.959 282.749C216.959 269.814 209.414 258.675 198.634 253.644V195.075C205.102 190.763 209.773 182.858 209.773 174.593C209.773 164.532 203.664 155.909 195.041 151.956L193.603 127.881C199.353 124.647 203.305 118.539 203.305 111.353C203.305 102.37 196.837 94.8237 188.214 93.0271V68.5932C188.214 66.7966 186.776 65 184.62 65C182.464 65 181.027 66.4373 181.027 68.5932V93.0271C172.403 94.8237 165.936 102.37 165.936 111.353C165.936 118.539 169.888 124.647 175.637 127.881L174.2 151.956C165.576 155.909 159.468 164.532 159.468 174.593C159.468 183.217 163.78 190.763 170.607 195.075V253.644C159.827 259.034 152.281 269.814 152.281 282.749C152.281 294.607 158.39 304.668 168.092 310.417L130.003 363.956H114.193C112.397 363.956 110.6 365.393 110.6 367.549C110.6 369.705 112.037 371.142 114.193 371.142ZM191.447 363.956H177.434V314.37C179.59 314.729 182.105 315.088 184.261 315.088C186.776 315.088 188.932 314.729 191.088 314.37V363.956H191.447ZM232.051 363.956H198.634V316.885L232.051 363.956ZM184.62 99.8543C189.651 99.8543 194.322 103.447 195.759 108.119H173.481C174.919 103.088 179.59 99.8543 184.62 99.8543ZM173.481 114.946H195.759C194.322 119.617 190.01 123.21 184.62 123.21C179.59 122.851 174.919 119.617 173.481 114.946ZM187.854 149.8C186.776 149.8 185.698 149.441 184.62 149.441C183.542 149.441 182.464 149.441 181.386 149.8L182.464 130.037C183.183 130.037 183.902 130.037 184.261 130.037C184.98 130.037 185.698 130.037 186.058 130.037L187.854 149.8ZM184.62 156.268C193.244 156.268 200.431 162.376 202.227 170.641H167.014C168.81 162.736 175.997 156.268 184.62 156.268ZM167.014 177.827H202.227C200.431 186.092 193.244 192.2 184.62 192.2C175.997 192.2 168.81 186.092 167.014 177.827ZM191.447 198.309V251.129C189.292 250.77 187.136 250.41 184.62 250.41C182.105 250.41 179.949 250.77 177.793 251.129V198.309C179.949 199.027 182.464 199.386 184.62 199.386C187.136 199.027 189.292 198.668 191.447 198.309ZM184.62 257.237C197.556 257.237 207.976 266.939 209.773 279.156H159.468C161.264 266.939 171.685 257.237 184.62 257.237ZM159.468 286.342H209.773C207.976 298.559 197.556 308.261 184.62 308.261C171.685 308.261 161.264 298.559 159.468 286.342ZM170.607 318.681V364.315H138.268L170.607 318.681Z" fill="white"/>
</g>
<defs>
<clipPath id="clip0_19_3">
<rect width="371" height="371" fill="white"/>
</clipPath>
</defs>
</svg>
