<svg width="142" height="27" viewBox="0 0 142 27" fill="none" xmlns="http://www.w3.org/2000/svg">
<path d="M0.16 26V0.799998H2.68V23.48H14.254V26H0.16ZM18.7703 26V0.799998H21.2903V26H18.7703ZM37.8225 26.468C36.0945 26.468 34.4745 26.132 32.9625 25.46C31.4625 24.776 30.1485 23.834 29.0205 22.634C27.8925 21.422 27.0105 20.03 26.3745 18.458C25.7385 16.874 25.4205 15.182 25.4205 13.382C25.4205 11.546 25.7505 9.836 26.4105 8.252C27.0705 6.668 27.9765 5.288 29.1285 4.112C30.2805 2.924 31.6005 2 33.0885 1.34C34.5885 0.679998 36.1785 0.349999 37.8585 0.349999C39.7905 0.349999 41.6145 0.799999 43.3305 1.7C45.0585 2.6 46.5225 3.878 47.7225 5.534L45.4725 6.758C44.5125 5.498 43.3545 4.532 41.9985 3.86C40.6545 3.188 39.2685 2.852 37.8405 2.852C36.4845 2.852 35.2065 3.128 34.0065 3.68C32.8185 4.22 31.7685 4.976 30.8565 5.948C29.9445 6.92 29.2305 8.042 28.7145 9.314C28.1985 10.586 27.9405 11.954 27.9405 13.418C27.9405 14.87 28.1985 16.232 28.7145 17.504C29.2305 18.776 29.9385 19.898 30.8385 20.87C31.7505 21.83 32.8065 22.586 34.0065 23.138C35.2065 23.678 36.4905 23.948 37.8585 23.948C38.9865 23.948 40.0545 23.756 41.0625 23.372C42.0825 22.976 43.0125 22.424 43.8525 21.716C44.6925 21.008 45.4005 20.18 45.9765 19.232C46.5645 18.284 46.9905 17.252 47.2545 16.136H40.4505V13.85H50.1885C50.1525 15.59 49.8045 17.222 49.1445 18.746C48.4845 20.27 47.5845 21.614 46.4445 22.778C45.3165 23.93 44.0145 24.836 42.5385 25.496C41.0745 26.144 39.5025 26.468 37.8225 26.468ZM69.5936 0.799998H72.1136V26H69.5936V13.76H56.3636V26H53.8436V0.799998H56.3636V11.24H69.5936V0.799998ZM95.5111 0.799998V3.32H86.8711V26H84.3511V3.32H75.7291V0.799998H95.5111Z" fill="#FCFCFC"/>
<path d="M97.6823 26.468C97.2863 26.468 96.9503 26.324 96.6743 26.036C96.3983 25.76 96.2603 25.418 96.2603 25.01C96.2603 24.626 96.3983 24.296 96.6743 24.02C96.9503 23.732 97.2863 23.588 97.6823 23.588C98.0903 23.588 98.4323 23.732 98.7083 24.02C98.9963 24.296 99.1403 24.626 99.1403 25.01C99.1403 25.418 98.9963 25.76 98.7083 26.036C98.4323 26.324 98.0903 26.468 97.6823 26.468ZM111.891 0.799998H115.023L124.203 26H121.521L119.559 20.6H107.373L105.411 26H102.729L111.891 0.799998ZM108.291 18.08H118.623L113.457 3.896L108.291 18.08ZM127.566 26V0.799998H130.086V23.48H141.66V26H127.566Z" fill="#D1FF11"/>
</svg>
