<svg width="44" height="32" viewBox="0 0 44 32" fill="none" xmlns="http://www.w3.org/2000/svg">
<path d="M43 16C43 24.2688 36.3189 31 28.0406 31C22.3722 31 18.2425 28.1462 15.7948 25.7875L15.2611 25.255L14.7859 24.7488L14.3711 24.2762L13.8619 23.6575L13.4018 23.0425C13.0813 22.5906 12.6117 22.2869 12.1233 22.0113L11.4369 21.6269C10.6638 21.1806 10 20.6575 10 19.5494L10 12.4506C10 11.3444 10.6619 10.8194 11.4369 10.3731L11.8291 10.1519C12.4175 9.82937 13.0171 9.49938 13.4018 8.9575L13.7243 8.5225L14.0166 8.14937L14.3711 7.72375L14.7859 7.25125L15.2611 6.745L15.7948 6.21062C18.2425 3.85375 22.3722 0.999999 28.0406 0.999999C36.3189 1 43 7.73125 43 16Z" fill="white" stroke="white" stroke-width="0.5"/>
<path d="M9 18.5014C8.99943 19.1389 8.80424 19.7522 8.4543 20.2158C8.10437 20.6794 7.62609 20.9583 7.11721 20.9957C6.60833 21.0331 6.10724 20.826 5.71634 20.4168C5.32543 20.0076 5.07421 19.4271 5.014 18.794L5 18.5014L5 13.4986C5.00057 12.8611 5.19576 12.2478 5.5457 11.7842C5.89563 11.3206 6.37391 11.0417 6.88279 11.0043C7.39167 10.9669 7.89276 11.174 8.28366 11.5832C8.67457 11.9924 8.92579 12.5729 8.986 13.206L9 13.4986L9 18.5014Z" fill="white"/>
<path d="M4 18.5014C3.99943 19.1389 3.80424 19.7522 3.4543 20.2158C3.10436 20.6794 2.62609 20.9583 2.11721 20.9957C1.60833 21.0331 1.10724 20.826 0.716335 20.4168C0.325429 20.0076 0.0742071 19.4271 0.0139998 18.794L-8.94774e-08 18.5014L1.29201e-07 13.4986C0.000565572 12.8611 0.195758 12.2478 0.545696 11.7842C0.895635 11.3206 1.37391 11.0417 1.88279 11.0043C2.39167 10.9669 2.89276 11.174 3.28366 11.5832C3.67457 11.9924 3.92579 12.5729 3.986 13.206L4 13.4986L4 18.5014Z" fill="white"/>
<path d="M35.9958 18.1254C35.9652 18.6114 35.7584 19.0696 35.414 19.414C35.0389 19.789 34.5303 19.9996 34 19.9996C33.4697 19.9996 32.9611 19.789 32.586 19.414L30 16.828L27.428 19.4L27.238 19.568C26.434 20.192 25.292 20.12 24.572 19.4L20.586 15.414L20.42 15.226C20.1092 14.824 19.963 14.3188 20.0112 13.813C20.0594 13.3071 20.2983 12.8386 20.6794 12.5025C21.0606 12.1664 21.5553 11.988 22.0632 12.0036C22.5711 12.0191 23.0541 12.2273 23.414 12.586L26 15.172L28.572 12.6L28.762 12.432C29.1507 12.1307 29.6359 11.9815 30.1267 12.0124C30.6176 12.0433 31.0802 12.2523 31.428 12.6L35.414 16.586L35.58 16.774C35.8785 17.1588 36.0263 17.6393 35.9958 18.1254Z" fill="#D1FF11"/>
</svg>
