<svg width="40" height="32" viewBox="0 0 40 32" fill="none" xmlns="http://www.w3.org/2000/svg">
<path opacity="0.3" d="M40 16C40 24.82 32.914 32 24.134 32C18.122 32 13.742 28.956 11.146 26.44L10.58 25.872L10.076 25.332L9.636 24.828L9.096 24.168L8.608 23.512C8.268 23.03 7.77 22.706 7.252 22.412L6.524 22.002C5.704 21.526 5 20.968 5 19.786L5 12.214C5 11.034 5.702 10.474 6.524 9.998L6.94 9.762C7.564 9.418 8.2 9.066 8.608 8.488L8.95 8.024L9.26 7.626L9.636 7.172L10.076 6.668L10.58 6.128L11.146 5.558C13.742 3.044 18.122 -9.56318e-07 24.134 -6.93525e-07C32.914 -3.09739e-07 40 7.18 40 16Z" fill="black"/>
<path d="M4 18C3.99943 18.5098 3.80424 19.0001 3.4543 19.3707C3.10436 19.7414 2.62609 19.9645 2.11721 19.9944C1.60833 20.0242 1.10724 19.8587 0.716335 19.5315C0.325429 19.2043 0.0742069 18.7402 0.0139997 18.234L-2.62171e-07 18L-8.73259e-08 14C0.00056535 13.4903 0.195758 12.9999 0.545696 12.6293C0.895635 12.2586 1.37391 12.0355 1.88279 12.0057C2.39167 11.9758 2.89276 12.1414 3.28366 12.4685C3.67457 12.7957 3.92579 13.2598 3.986 13.766L4 14L4 18Z" fill="black"/>
<path d="M31.9958 18.1254C31.9652 18.6114 31.7584 19.0696 31.414 19.414C31.0389 19.789 30.5303 19.9996 30 19.9996C29.4697 19.9996 28.9611 19.789 28.586 19.414L26 16.828L23.428 19.4L23.238 19.568C22.434 20.192 21.292 20.12 20.572 19.4L16.586 15.414L16.42 15.226C16.1092 14.824 15.963 14.3188 16.0112 13.813C16.0594 13.3071 16.2983 12.8386 16.6794 12.5025C17.0606 12.1664 17.5553 11.988 18.0632 12.0036C18.5711 12.0191 19.0541 12.2273 19.414 12.586L22 15.172L24.572 12.6L24.762 12.432C25.1507 12.1307 25.6359 11.9815 26.1267 12.0124C26.6176 12.0433 27.0802 12.2523 27.428 12.6L31.414 16.586L31.58 16.774C31.8785 17.1588 32.0263 17.6393 31.9958 18.1254Z" fill="#D1FF11"/>
</svg>
