<svg width="371" height="371" viewBox="0 0 371 371" fill="none" xmlns="http://www.w3.org/2000/svg">
<rect width="371" height="371" fill="#FF6AB2"/>
<path d="M198.257 269.602C202.525 269.602 206.516 267.689 210.147 263.904C213.058 260.885 214.693 256.81 214.755 252.57L232.22 249.499C236.601 249.364 241.24 247.11 244.593 243.232C248.152 239.116 249.88 233.542 249.335 227.948L244.089 178.33C243.307 170.419 237.568 164.297 229.113 162.384L161.877 147.161C161.476 147.058 161.065 146.975 160.622 147.027L104.011 148.082C101.234 148.133 98.9714 150.346 98.848 153.128L95.4229 227.792C95.3509 229.375 95.9783 230.905 97.1406 231.96C98.3029 233.015 99.8971 233.47 101.43 233.284L127.411 229.509C139.548 246.531 157.074 258.092 174.035 260.181L184.115 266.159C188.743 268.909 192.6 269.209 197.084 269.551C197.475 269.582 197.866 269.602 198.257 269.602ZM167.113 210.781C165.467 210.781 163.842 211.557 162.824 213.015C161.137 215.393 161.692 218.702 164.068 220.388L201.908 247.41C203.184 248.382 204.058 250.016 204.202 251.815C204.346 253.594 203.749 255.321 202.567 256.552C200.057 259.158 198.463 258.992 197.918 259.002C193.803 258.682 191.89 258.485 189.473 257.038L178.406 250.481C177.748 250.088 177.007 249.85 176.236 249.768C161.322 248.33 144.855 236.986 134.292 220.884C133.181 219.168 131.134 218.299 129.149 218.558L106.233 221.888L109.133 158.578L160.18 157.627L226.799 172.715C229.155 173.252 233.166 174.824 233.608 179.405L238.854 229.023C239.111 231.691 238.309 234.359 236.642 236.283C235.624 237.462 233.845 238.878 231.088 238.992L211.556 242.384C210.6 241.05 209.437 239.861 208.11 238.858L170.157 211.763C169.242 211.102 168.172 210.781 167.113 210.781Z" fill="white"/>
<path d="M210.085 234.39C212.996 234.39 215.351 232.022 215.351 229.095V223.677C215.351 217.399 212.585 211.484 207.771 207.461C199.285 200.378 186.717 201.153 179.157 209.178L171.916 216.862C169.91 218.982 169.992 222.332 172.111 224.338C174.22 226.345 177.542 226.283 179.548 224.142L186.799 216.458C190.584 212.477 196.827 212.084 201.044 215.61C203.441 217.617 204.819 220.553 204.819 223.677V229.095C204.819 232.022 207.174 234.39 210.085 234.39Z" fill="white"/>
<path d="M103.696 153.675L69.1171 148.615V235.978L100.273 228.331L103.696 153.675Z" fill="white"/>
<path d="M69.1126 241.277C69.5343 241.277 69.9458 241.225 70.3675 241.122L101.522 233.47C103.785 232.911 105.42 230.926 105.523 228.578L108.948 153.924C109.082 151.204 107.128 148.826 104.454 148.433L69.8738 143.376C68.2898 143.19 66.819 143.614 65.667 144.617C64.515 145.62 63.8465 147.078 63.8465 148.619V235.982C63.8465 237.606 64.587 239.147 65.8624 240.15C66.7984 240.884 67.9504 241.277 69.1126 241.277ZM95.1863 224.131L74.3788 229.24V154.741L98.2102 158.226L95.1863 224.131Z" fill="white"/>
<path d="M291.373 247.044C272.053 244.77 258.54 254.464 247.223 268.606C246.185 269.903 245.227 271.299 244.169 272.596C241.495 275.687 237.682 276.366 234.868 274.171C231.674 271.718 232.153 268.766 233.89 265.654C242.932 249.418 255.845 237.849 273.809 232.543C277.801 231.386 278.021 230.17 275.965 226.799C264.847 208.707 263.61 190.297 274.847 171.707C275.925 169.891 277.122 168.375 273.609 167.717C253.65 163.628 241.395 151.122 234.788 132.392C234.281 131.12 233.841 129.821 233.471 128.503C232.672 125.052 231.355 124.015 227.842 126.169C219.098 131.798 209.03 135.037 198.641 135.564C190.733 135.855 182.827 134.912 175.209 132.771C173.752 132.521 172.452 131.711 171.586 130.514C170.72 129.317 170.359 127.829 170.578 126.368C170.674 124.905 171.304 123.528 172.349 122.498C173.394 121.469 174.781 120.858 176.247 120.783C178.056 120.63 179.877 120.677 181.676 120.923C202.534 123.675 219.739 117.472 232.772 100.538C234.768 97.9047 236.525 93.9154 240.556 95.1321C244.588 96.3488 243.69 100.597 244.209 103.749C245.965 114.281 248.321 124.553 253.63 134.048C260.496 146.355 271.434 151.301 284.847 152.139C290.595 152.478 296.363 152.678 302.132 152.917C304.008 152.917 305.884 153.057 306.822 155.031C307.76 157.006 306.543 158.781 305.205 160.297C301.52 164.526 297.86 168.768 294.228 173.023C282.851 186.287 281.633 200.769 289.098 216.287C293.234 224.25 298.155 231.781 303.788 238.767C305.126 240.522 307.082 242.257 305.784 244.75C304.487 247.244 302.032 246.965 299.796 246.965C296.862 247.064 294.108 247.044 291.373 247.044Z" fill="white"/>
</svg>
