<svg width="372" height="371" viewBox="0 0 372 371" fill="none" xmlns="http://www.w3.org/2000/svg">
<rect y="-1" width="372" height="372" fill="black"/>
<path d="M206.567 280H163.961C160.63 280 158.175 279.299 156.597 277.896C155.194 276.318 154.493 273.863 154.493 270.532V141.399H115.832C112.501 141.399 110.046 140.698 108.468 139.295C107.065 137.717 106.364 135.262 106.364 131.931V100.108C106.364 96.7767 107.065 94.4097 108.468 93.007C110.046 91.429 112.501 90.64 115.832 90.64H254.696C258.027 90.64 260.394 91.429 261.797 93.007C263.375 94.4097 264.164 96.7767 264.164 100.108V131.931C264.164 135.262 263.375 137.717 261.797 139.295C260.394 140.698 258.027 141.399 254.696 141.399H216.035V270.532C216.035 273.863 215.246 276.318 213.668 277.896C212.265 279.299 209.898 280 206.567 280Z" fill="white"/>
</svg>
