<svg width="90" height="47" viewBox="0 0 90 47" fill="none" xmlns="http://www.w3.org/2000/svg">
<path d="M78.6 1.1C82.7 -1.9 88 2.6 85.8 7.1L77.7 19.7C76.9 21.3 77.1 23.3 78.1 24.7L88.2 35.8C91.2 39.9 86.7 45.2 82.2 43L69.6 35C68 34.2 66 34.4 64.6 35.4L53.5 45.5C49.4 48.5 44.1 44 46.3 39.5L54.4 26.9C55.2 25.3 55 23.3 54 21.9L43.9 10.7C40.9 6.6 45.4 1.3 49.9 3.5L62.5 11.6C64.1 12.4 66.1 12.2 67.5 11.2L78.6 1.1Z" fill="#77E7FF"/>
<path d="M82.3999 3.7C86.9999 1.5 91.3999 6.9 88.3999 10.9L78.1999 21.9C77.0999 23.3 76.8999 25.3 77.6999 26.9L85.6999 39.6C87.8999 44.2 82.4999 48.6 78.4999 45.6L67.4999 35.4C66.0999 34.3 64.0999 34.1 62.4999 34.9L49.7999 42.9C45.1999 45.1 40.7999 39.7 43.7999 35.7L53.9999 24.7C55.0999 23.3 55.2999 21.3 54.4999 19.7L46.4999 7C44.2999 2.4 49.6999 -2 53.6999 1L64.6999 11.2C66.0999 12.3 68.0999 12.5 69.6999 11.7L82.3999 3.7Z" fill="#B377FF"/>
<path d="M80.5 2.2C84.8 -0.400001 89.7999 4.5 87.0999 8.8L78.5999 20.7C77.6999 22.2 77.6999 24.2 78.5999 25.7L87.0999 37.6C89.6999 41.9 84.8 46.9 80.5 44.2L68.5999 35.7C67.0999 34.8 65.0999 34.8 63.5999 35.7L51.6999 44.2C47.2999 47 42.3999 42 44.9999 37.7L53.4999 25.8C54.3999 24.3 54.3999 22.3 53.4999 20.8L44.9999 8.9C42.3999 4.6 47.2999 -0.400001 51.5999 2.3L63.4999 10.8C64.9999 11.7 66.9999 11.7 68.4999 10.8L80.5 2.2Z" fill="#3F20FB"/>
<path d="M25.7 28.8C25.7 30.1 25.4 31.3 24.8 32.4C24.2 33.4 23.4 34.3 22.3 34.9C21.3 35.5 20.1 35.8 18.7 35.8C17.4 35.8 16.2 35.5 15.1 34.9C14.1 34.3 13.2 33.5 12.6 32.4C12 31.3 11.7 30.1 11.7 28.8V2.1H0V29.9C0 33.2 0.8 36.1 2.3 38.5C3.9 40.9 6.1 42.8 8.9 44.1C11.7 45.4 15 46 18.7 46C22.4 46 25.7 45.4 28.5 44.1C31.3 42.8 33.5 40.9 35.1 38.5C36.7 36.1 37.5 33.2 37.5 29.9V2.1H25.7V28.8Z" fill="#3F20FB"/>
</svg>
