<svg width="64" height="48" viewBox="0 0 64 48" xmlns="http://www.w3.org/2000/svg">
    <path fill="#083547" d="M32 0C14.3267 0 0 10.745 0 24C0 37.255 14.3267 48 32 48C49.6733 48 64 37.255 64 24C64 10.745 49.6733 0 32 0ZM32 45.15C15.9083 45.15 2.86333 35.6842 2.86333 24.0067C2.86333 12.3292 15.9083 2.86333 32 2.86333C48.0917 2.86333 61.1367 12.3292 61.1367 24.0067C61.1367 35.6842 48.0917 45.15 32 45.15Z" class="logo_outline__GSqTi"></path>
    <path fill="#ff3c00" d="M32.1448 17.4915L34.7498 7.76735C35.7807 7.94068 36.779 8.20735 37.7348 8.56235L35.1274 18.2924C34.224 17.7974 33.2032 17.514 32.1448 17.4915ZM31.8557 17.4932L29.2482 7.76318C28.2423 7.93318 27.244 8.20235 26.2649 8.56735L28.8707 18.2915C29.799 17.7815 30.8249 17.5157 31.8557 17.4932ZM28.6215 18.4374L21.499 11.3148C20.7132 11.9648 19.9832 12.6965 19.3174 13.5024L26.4357 20.6207C26.9848 19.7149 27.7407 18.9715 28.6215 18.4374ZM26.2924 20.8715L16.5624 18.264C16.2074 19.2199 15.9407 20.219 15.7674 21.249L25.4915 23.8549C25.514 22.7965 25.7974 21.7757 26.2924 20.8715ZM25.4932 24.144L15.7632 26.7515C15.9332 27.7574 16.2024 28.7557 16.5674 29.7349L26.2915 27.129C25.7815 26.2007 25.5157 25.1748 25.4932 24.144ZM26.4374 27.3782L19.3149 34.5007C19.9649 35.2865 20.6965 36.0165 21.5024 36.6824L28.6207 29.564C27.7149 29.0149 26.9715 28.259 26.4374 27.3782ZM28.8715 29.7073L26.264 39.4374C27.2198 39.7924 28.219 40.059 29.249 40.2323L31.8549 30.5082C30.7965 30.4857 29.7757 30.2023 28.8715 29.7073ZM32.144 30.5065L34.7515 40.2365C35.7574 40.0665 36.7557 39.7974 37.7348 39.4324L35.129 29.7082C34.2007 30.2182 33.1748 30.484 32.144 30.5065ZM35.3782 29.5624L42.5007 36.6848C43.2865 36.0348 44.0165 35.3032 44.6823 34.4973L37.564 27.379C37.0149 28.2848 36.259 29.0282 35.3782 29.5624ZM37.7073 27.1282L47.4373 29.7357C47.7923 28.7799 48.059 27.7807 48.2324 26.7507L38.5082 24.1448C38.4857 25.2032 38.2023 26.224 37.7073 27.1282ZM38.5065 23.8557L48.2365 21.2482C48.0665 20.2424 47.7973 19.244 47.4323 18.2648L37.7082 20.8707C38.2182 21.799 38.484 22.8249 38.5065 23.8557ZM37.5623 20.6215L44.6848 13.499C44.0348 12.7132 43.3032 11.9832 42.4973 11.3173L35.379 18.4357C36.2848 18.9849 37.0282 19.7407 37.5623 20.6215Z" class="logo_line__WU0o7"></path>
</svg>